#N canvas 10 31 1920 997 12;
#X obj 43 481 soundfiler;
#X floatatom 43 505 10 0 0 3 length_of_sample_in_samples - -;
#X text 229 235 sends a message to soundfiler to read a file and resize
the array to match the sample length;
#X obj 43 192 openpanel;
#X obj 44 551 s \$0-file_duration;
#X text 52 24 all of this loads the sample;
#X obj 829 627 *~ 0.25;
#X obj 830 569 *~ 535899, f 25;
#X obj 830 147 r \$0-file_duration;
#X floatatom 830 171 10 0 0 0 - - -;
#X obj 1002 520 r \$0-file_duration;
#X floatatom 1002 544 10 0 0 0 - - -;
#X obj 982 146 loadbang;
#X obj 982 181 samplerate~;
#X obj 1074 149 bng 15 250 50 0 empty empty empty 17 7 0 10 -262144
-1 -1;
#X text 828 88 sample playback - plays once;
#X obj 829 660 outlet~;
#X obj 378 194 array define \$0-sample_1;
#X obj 43 290 list append \$0-sample_1;
#X text 218 290 adds array name to any read messages coming in;
#X obj 43 378 route list;
#X text 125 378 removes the word "list" from outgoing message to soundfiler
;
#X obj 829 603 tabread4~ \$0-sample_1;
#X msg 43 242 read -resize \$1;
#X obj 990 254 inlet;
#X obj 876 387 inlet;
#X text 1034 272 playback rate input as number | 1 is og speed \, 0.5
is half speed \, etc.;
#X obj 830 448 phasor~;
#X obj 830 237 expr $f2 / $f1;
#X floatatom 990 278 5 0 0 0 - - -;
#X obj 990 301 t b f;
#X obj 830 378 * 1;
#X obj 43 157 bng 15 250 50 0 empty empty empty 17 7 0 10 -262144 -1
-1;
#X obj 163 153 inlet;
#X obj 163 177 symbol;
#X obj 123 430 print;
#X connect 0 0 1 0;
#X connect 1 0 4 0;
#X connect 3 0 23 0;
#X connect 6 0 16 0;
#X connect 7 0 22 0;
#X connect 8 0 9 0;
#X connect 9 0 28 0;
#X connect 10 0 11 0;
#X connect 11 0 7 1;
#X connect 12 0 13 0;
#X connect 13 0 28 1;
#X connect 14 0 13 0;
#X connect 18 0 20 0;
#X connect 20 0 0 0;
#X connect 20 0 35 0;
#X connect 22 0 6 0;
#X connect 23 0 18 0;
#X connect 24 0 29 0;
#X connect 25 0 27 1;
#X connect 27 0 7 0;
#X connect 28 0 31 0;
#X connect 29 0 30 0;
#X connect 30 0 31 0;
#X connect 30 1 31 1;
#X connect 31 0 27 0;
#X connect 32 0 3 0;
#X connect 33 0 34 0;
#X connect 34 0 23 0;
