#N canvas 127 128 1153 715 12;
#X obj 349 139 inlet;
#X obj 349 181 mtof;
#X obj 349 160 t f b b, f 36;
#X obj 319 249 phasor~;
#X obj 319 270 *~ 2051;
#X obj 319 291 tabread4~ wavetable;
#X obj 515 601 *~;
#X obj 515 622 outlet~;
#X obj 371 422 vcf~ 2;
#X obj 796 217 r volDur;
#N canvas 0 23 453 473 filterEnv 0;
#X obj 201 53 inlet;
#X obj 230 183 line~;
#X obj 230 204 *~;
#X obj 232 310 +~ 60;
#X obj 198 93 t b b, f 14;
#X msg 193 121 0;
#X floatatom 271 257 5 0 0 0 - - -;
#X obj 230 246 *~;
#X obj 193 142 pack 0 1000;
#X obj 232 331 outlet~;
#X obj 333 67 inlet;
#X obj 232 289 *~ 6000;
#X msg 285 141 1;
#X connect 0 0 4 0;
#X connect 1 0 2 0;
#X connect 1 0 2 1;
#X connect 2 0 7 0;
#X connect 2 0 7 1;
#X connect 3 0 9 0;
#X connect 4 0 5 0;
#X connect 4 1 12 0;
#X connect 5 0 8 0;
#X connect 6 0 11 1;
#X connect 7 0 11 0;
#X connect 8 0 1 0;
#X connect 10 0 8 1;
#X connect 11 0 3 0;
#X connect 12 0 1 0;
#X restore 521 302 pd filterEnv;
#X obj 602 268 r filterDur;
#N canvas 11 335 1290 661 amplitudeEnv 1;
#X obj 98 144 line~;
#X obj 98 165 *~;
#X obj 98 186 *~;
#X obj 97 52 t b b, f 14;
#X msg 97 94 0;
#X floatatom 150 86 5 0 0 0 - - -;
#X obj 97 115 pack 0 1000;
#X text 132 167 amplitude env;
#X msg 180 117 1 1;
#X obj 97 72 del 50;
#X obj 585 314 line~;
#X obj 638 276 pack 0 500;
#X floatatom 800 204 5 0 0 0 - - -;
#X obj 584 349 *~;
#X obj 584 373 *~;
#X text 722 277 reach volume [arg1] in [arg2] milliseconds;
#X text 843 204 decay;
#X text 554 275 atk;
#X text 691 227 hold;
#X obj 585 135 inlet;
#X obj 584 432 outlet~;
#X obj 800 142 inlet;
#X text 624 361 squaring the output makes the decay sound more natural
since it's turning a linear amp into a smooth exponential curve;
#X text 638 309 line object takes number inputs and creates a smooth
line between them;
#X obj 638 227 del 100;
#X msg 585 275 1 200;
#X connect 0 0 1 0;
#X connect 0 0 1 1;
#X connect 1 0 2 0;
#X connect 1 0 2 1;
#X connect 3 0 9 0;
#X connect 3 1 8 0;
#X connect 4 0 6 0;
#X connect 5 0 6 1;
#X connect 6 0 0 0;
#X connect 8 0 0 0;
#X connect 9 0 4 0;
#X connect 10 0 13 0;
#X connect 10 0 13 1;
#X connect 11 0 10 0;
#X connect 12 0 11 1;
#X connect 13 0 14 0;
#X connect 13 0 14 1;
#X connect 14 0 20 0;
#X connect 19 0 25 0;
#X connect 19 0 24 0;
#X connect 21 0 12 0;
#X connect 24 0 11 0;
#X connect 25 0 10 0;
#X restore 724 269 pd amplitudeEnv;
#X obj 454 395 r resonance;
#X obj 151 261 phasor~;
#X obj 151 282 *~ 2051;
#X obj 151 303 tabread4~ wavetable;
#X obj 151 240 * 1.0051;
#X text 214 240 detune;
#X text 376 268 * array size;
#X connect 0 0 2 0;
#X connect 1 0 3 0;
#X connect 1 0 17 0;
#X connect 2 0 1 0;
#X connect 2 1 10 0;
#X connect 2 2 12 0;
#X connect 3 0 4 0;
#X connect 4 0 5 0;
#X connect 5 0 8 0;
#X connect 6 0 7 0;
#X connect 8 1 6 0;
#X connect 9 0 12 1;
#X connect 10 0 8 1;
#X connect 11 0 10 1;
#X connect 12 0 6 1;
#X connect 13 0 8 2;
#X connect 14 0 15 0;
#X connect 15 0 16 0;
#X connect 16 0 8 0;
#X connect 17 0 14 0;
